<svg id="Capa_1" enable-background="new 0 0 512 512" height="512" viewBox="0 0 512 512" width="512" xmlns="http://www.w3.org/2000/svg"><g><path d="m512 214c0-19.189-7.547-50.564-18.353-76.299-10.287-24.498-27.597-53.701-51.647-53.701s-41.36 29.203-51.647 53.701c-10.806 25.735-18.353 57.11-18.353 76.299 0 7.03 1.06 13.971 3.101 20.608-18.778 3.28-33.101 19.69-33.101 39.392 0 18.604 12.767 34.282 30 38.734v59.257c-4.907 3.591-9.152 7.085-13.974 11.587-6.648-1.821-13.202-3.762-19.547-5.802-40.438-12.948-76.898-30.83-108.479-53.159v-65.343c33.877-4.869 60-34.072 60-69.274 0-19.189-7.547-50.564-18.353-76.299-10.287-24.498-27.597-53.701-51.647-53.701-13.026 0-25.283 8.425-36.56 25.069-3.941-4.637-8.483-8.762-13.547-12.273.066-.9.107-1.833.107-2.796 0-38.599-31.402-70-70-70s-70 31.401-70 70c0 .967.041 1.902.108 2.806-18.726 13.039-30.108 34.385-30.108 57.194 0 38.599 31.402 70 70 70h20v85.793c-37.314 8.809-69.229 30.657-88.437 60.838-1.021 1.604-1.563 3.467-1.563 5.369v150c0 5.522 4.477 10 10 10h344c5.522 0 10-4.478 10-10s-4.478-10-10-10h-84.742c31.615-18.629 61.267-45.031 88.434-78.79 8.349-10.377 18.584-20.069 29.882-27.747.012-.009.025-.017.037-.025 28.555-19.29 67.768-28.971 104.389-24.784v131.346h-48c-5.522 0-10 4.478-10 10s4.478 10 10 10h58c5.522 0 10-4.478 10-10v-150c0-4.855-3.488-9.01-8.271-9.85-16.523-2.901-34.2-3.226-51.729-.999v-57.877c33.877-4.868 60-34.071 60-69.274zm-103.207-68.556c12.83-30.556 25.566-41.444 33.207-41.444s20.377 10.888 33.207 41.444c10.907 25.976 16.793 54.709 16.793 68.556 0 27.57-22.43 50-50 50-27.675 0-50-22.446-50-50 0-13.847 5.886-42.58 16.793-68.556zm12.599 135.455c3.463 1.065 7.009 1.864 10.608 2.381v61.539c-14.115 3.385-27.627 8.4-40 14.817v-46.903c15.053-3.888 26.687-16.346 29.392-31.834zm-59.392-6.899c0-11.028 8.972-20 20-20 .903 0 1.801.069 2.69.188 4.665 6.637 10.487 12.459 17.122 17.123.119.89.188 1.787.188 2.69 0 11.028-8.972 20-20 20s-20-8.973-20-20.001zm-142-194c7.641 0 20.376 10.888 33.207 41.444 10.907 25.976 16.793 54.709 16.793 68.556 0 27.57-22.43 50-50 50s-50-22.43-50-50c0-.818.026-1.699.064-2.611 18.587-13.013 29.936-34.53 29.936-57.389 0-8.912-1.678-17.512-4.947-25.65 8.611-15.331 17.783-24.35 24.947-24.35zm-200 50c0-17.856 9.847-34.482 25.699-43.392 7.474-4.201 4.301-11.887 4.301-16.608 0-27.57 22.43-50 50-50s50 22.43 50 50c0 4.748-3.171 12.412 4.305 16.61 15.842 8.895 25.695 25.321 25.695 43.39 0 27.54-22.373 50-50 50h-60c-27.57 0-50-22.43-50-50zm110 70c6.932 0 13.79-1.03 20.349-3.02 3.185 32.022 28.041 57.751 59.651 62.294v50.244c-14.943-11.18-31.723-19.155-49.954-23.71-15.941-3.987-33.039-5.132-50.046-3.4v-82.408zm-110 292v-137.017c17.839-26.449 47.52-45.063 81.906-51.253 18.002-3.246 36.428-2.737 53.29 1.481 16.934 4.231 32.409 11.891 45.993 22.764 21.791 17.448 45.422 32.167 70.373 44.437-28.155 1.615-54.333 7.941-74.885 18.216-26.231 13.115-40.677 31.359-40.677 51.372 0 17.916 11.084 35.717 29.988 50zm205.734-.798c-29.466-11.632-49.734-31.522-49.734-49.202 0-11.867 10.796-24.071 29.621-33.483 21.303-10.651 49.849-16.517 80.379-16.517 27.555 0 43.12 3.978 56.667 7.996-59.891 73.614-110.096 87.127-116.933 91.206z"/><circle cx="399" cy="502" r="10"/></g></svg>