<svg height="411pt" viewBox="0 -36 411.144 411" width="411pt" xmlns="http://www.w3.org/2000/svg"><path d="m205.570312 70.859375c-10.25 0-18.558593 8.3125-18.558593 18.5625 0 10.246094 8.308593 18.558594 18.558593 18.558594s18.5625-8.3125 18.5625-18.558594c-.011718-10.246094-8.316406-18.550781-18.5625-18.5625zm0 25.121094c-3.621093 0-6.558593-2.9375-6.558593-6.558594 0-3.625 2.9375-6.5625 6.558593-6.5625 3.625 0 6.5625 2.9375 6.5625 6.5625-.007812 3.617187-2.941406 6.550781-6.5625 6.558594zm0 0"/><path d="m6 339.914062h399.144531c3.3125 0 6-2.683593 6-6 0-3.3125-2.6875-6-6-6h-15.183593v-12.152343h.257812c11.558594-.0625 20.902344-9.441407 20.925781-21v-7c0-3.3125-2.6875-6-6-6s-6 2.6875-6 6v7c-.007812 4.945312-4 8.964843-8.949219 9h-.234374v-19.734375c11.710937-2.792969 19.980468-13.25 20-25.292969v-26.667969c0-14.359375-11.640626-26-26-26-14.359376 0-26 11.640625-26 26v26.667969c.015624 12.042969 8.285156 22.5 20 25.292969v43.886718h-31.816407v-226.761718h17.039063c2.117187 0 4.074218-1.113282 5.15625-2.929688 1.082031-1.820312 1.128906-4.070312.121094-5.929687l-48.300782-89.082031c-1.050781-1.933594-3.074218-3.1406255-5.273437-3.1406255h-218.625c-2.199219 0-4.222657 1.2070315-5.273438 3.1406255l-48.300781 89.082031c-1.007812 1.859375-.960938 4.109375.121094 5.929687 1.082031 1.816406 3.039062 2.929688 5.15625 2.929688h17.039062v157.316406c-8.085937-2.730469-17.023437-.285156-22.59375 6.183594-5.570312 6.472656-6.65625 15.671875-2.753906 23.261718h-16.132812c-3.3125 0-6 2.6875-6 6v34h-11.523438c-3.3125 0-6 2.6875-6 6 0 3.316407 2.6875 6 6 6zm363.960938-81.179687v-26.667969c0-7.730468 6.265624-14 14-14 7.730468 0 14 6.269532 14 14v26.667969c-.011719 5.402344-3.121094 10.316406-8 12.628906v-5c0-3.3125-2.6875-6-6-6-3.316407 0-6 2.6875-6 6v5c-4.878907-2.3125-7.992188-7.226562-8-12.628906zm-170.390626 69.179687h-16.296874v-80.328124h16.296874zm28.300782 0h-16.300782v-80.328124h16.300782zm0-92.328124h-44.597656v-8.882813c0-12.316406 9.984374-22.300781 22.300781-22.300781 12.320312 0 22.304687 9.984375 22.304687 22.300781zm106.269531 92.328124h-94.269531v-101.210937c0-18.945313-15.359375-34.300781-34.304688-34.300781-18.945312 0-34.300781 15.355468-34.300781 34.300781v101.210937h-21.742187v-34c0-3.3125-2.683594-6-6-6h-15.511719c4.539062-8.832031 2.265625-19.640624-5.445313-25.898437-7.710937-6.261719-18.757812-6.261719-26.46875 0-7.710937 6.257813-9.984375 17.066406-5.445312 25.898437h-13.640625c3.097656-5.996093 3.09375-13.125-.011719-19.121093v-167.640625h83.988281c1.800781 0 3.507813-.808594 4.648438-2.199219l39.933593-48.898437 39.9375 48.894531c1.140626 1.390625 2.84375 2.199219 4.644532 2.199219h83.992187zm-215.808594-49.546874c0 4.96875-4.03125 9-9 9s-9-4.03125-9-9c0-4.972657 4.03125-9 9-9 4.96875.003906 8.996094 4.03125 9 9zm-60.292969-189.214844 41.800782-77.082032h211.46875l41.800781 77.082032h-100.109375l-42.78125-52.378906c-1.140625-1.394532-2.84375-2.203126-4.648438-2.203126-1.800781 0-3.503906.808594-4.644531 2.203126l-42.78125 52.378906zm.292969 180.214844c4.96875 0 9 4.027343 9 9 0 4.96875-4.03125 9-9 9s-9-4.03125-9-9c.003907-4.96875 4.03125-8.996094 9-9zm-28.808593 30.546874h108v28h-108zm0 0"/></svg>